<svg width="46" height="54" viewBox="0 0 46 54" fill="none" xmlns="http://www.w3.org/2000/svg">
<path d="M13 2C10.6157 2 7.8736 4.07296 5.60938 8.77539C3.41359 13.3359 2.00003 19.7772 2 27C2 34.2228 3.41361 40.6641 5.60938 45.2246C7.87362 49.9272 10.6157 52 13 52V54C5.8203 54 0 41.9117 0 27C5.55873e-05 12.0884 5.82033 0 13 0V2Z" fill="#1C1C1C"/>
<mask id="path-2-inside-1_213_33" fill="white">
<path d="M13 0H33V54H13V0Z"/>
</mask>
<path d="M13 0V2H33V0V-2H13V0ZM33 54V52H13V54V56H33V54Z" fill="#1C1C1C" mask="url(#path-2-inside-1_213_33)"/>
<path d="M33 1.5C35.6857 1.5 38.5545 3.81022 40.8408 8.55859C43.0758 13.2005 44.5 19.7189 44.5 27C44.5 34.2811 43.0758 40.7995 40.8408 45.4414C38.5545 50.1898 35.6857 52.5 33 52.5C30.3143 52.5 27.4455 50.1898 25.1592 45.4414C22.9242 40.7995 21.5 34.2811 21.5 27C21.5 19.7189 22.9242 13.2005 25.1592 8.55859C27.4455 3.81022 30.3143 1.5 33 1.5Z" stroke="#1C1C1C" stroke-width="3"/>
<line x1="7" y1="5" x2="28" y2="5" stroke="#1C1C1C" stroke-width="2"/>
<line x1="2.88889" y1="13.3911" x2="22.4722" y2="13.3911" stroke="#1C1C1C" stroke-width="2"/>
<line x1="2" y1="25" x2="22" y2="25" stroke="#1C1C1C" stroke-width="2"/>
<line x1="2" y1="38" x2="22" y2="38" stroke="#1C1C1C" stroke-width="2"/>
<line x1="6" y1="48" x2="27" y2="48" stroke="#1C1C1C" stroke-width="2"/>
</svg>
